/* XPM */
static char *_b6081a198ea4c7484d3501d26e56da4QeEbo78IUpxySctn[] = {
/* columns rows colors chars-per-pixel */
"32 32 12 1 ",
"  c #4F2736",
". c #3B1D2D",
"X c #2D0D1D",
"o c #A25B45",
"O c #B1664B",
"+ c #D58C56",
"@ c #E3A569",
"# c #8B4A3E",
"$ c #EEB47A",
"% c #865466",
"& c #653444",
"* c #774353",
/* pixels */
" . . . . . . . . . . . . . . . .",
"XoO++@+@@@@@+@+@@@@@+@+@@@@++OoX",
".#O@$$$$$$$$$@@@$$$$@@$$$$$$@O#X",
".%%OOOOOOOOOoOOooooooooOoOOOO#&X",
" %%oOOooooOoOoooooooooOOOOOOO&&X",
".%*OoOoooooOoOoOoooooooOOOooo& X",
" %%OooOOOOOOOoOoOoooooooooooo  X",
".%*OoOOOoOOOOOoOoOoooOoOooooo&&X",
" **ooOOOOoOOOOOoOooOooOoooooo&&X",
".%*OoOOOOOoOoOoOoOoOoOoOoooOo&&X",
".**oOOOOOOOoOOOoOoOOooooOoOoO&&X",
".**ooOoOoOoOoOOOoOoOoOoOoOoOO& X",
".*%OooOOOoOOOoOoOooOoooOooOoO&&X",
".**OOOOOOOoOoOOOoOoooooooOoOO& X",
".*%oOOOoOoOoOOOoOoooooooOoOoO&&X",
"X**OoOOOOOoOOOOOooOOoOoooOOOo* X",
".**OOOOOOoOOOoOoOoooooOoOoOOO&&X",
".**OOOOOoOOOoOoOoooOoooOoOOOo*&X",
".*%oOOOOOoOoOoooOoooooOoOoOoO&&X",
".%*OoOOOoOoOoOOooooooooOoOooo*&X",
" *%oOOOoOoooOoOoooOoooooOoooo&&X",
".%*ooOoOooOOoOooooooooooooooo&&X",
" %%oOoOoOoOoOoOoooooooooooooo&&X",
".*%ooOoOoooooooooooooOooooooo& X",
" **oOoOoooooOoooooOoooooOooOo&&X",
".*%ooOoooooOoOoooOoOoOoooooOo& X",
".**oOoOoooooOoOooooooOoooOOOO &X",
".%*ooOoooooOooooOoOOooOooOOOo& X",
" **oOoooooooooooooooOOOOOOOoo&&X",
".*&&&& & & &&& &   & & &&&&&  &X",
".&& & & & &    .    & & &      X",
"X.X.X.XXX.X.X.X.XXXXXXX.X.X...XX"
};
