/* XPM */
static char *eefb0f4e2add4238ea31b366ab1fce66fFV3WrKg2xlqkxm8[] = {
/* columns rows colors chars-per-pixel */
"32 32 5 1 ",
"  c #22303E",
". c #393457",
"X c #F7E476",
"o c #F99252",
"O c white",
/* pixels */
"                                ",
"                                ",
"                                ",
"                                ",
"            ........            ",
"            ........            ",
"        ....XXXXXXXX....        ",
"        ....XXXXXXXX....        ",
"      ..XXXXooooooooXXXX..      ",
"      ..XXXXooooooooXXXX..      ",
"      ..XXooXXXXXXXXooXX..      ",
"      ..XXooXXXXXXXXooXX..      ",
"    ..XXooXXXXOOXXXXXXooXX..    ",
"    ..XXooXXXXOOXXXXXXooXX..    ",
"    ..XXooXXOOXXXXXXXXooXX..    ",
"    ..XXooXXOOXXXXXXXXooXX..    ",
"    ..XXooXXOOXXXXXXXXooXX..    ",
"    ..XXooXXOOXXXXXXXXooXX..    ",
"    ..XXooXXXXXXXXXXXXooXX..    ",
"    ..XXooXXXXXXXXXXXXooXX..    ",
"      ..XXooXXXXXXXXooXX..      ",
"      ..XXooXXXXXXXXooXX..      ",
"      ..XXXXooooooooXXXX..      ",
"      ..XXXXooooooooXXXX..      ",
"        ....XXXXXXXX....        ",
"        ....XXXXXXXX....        ",
"            ........            ",
"            ........            ",
"                                ",
"                                ",
"                                ",
"                                "
};
