/* XPM */
static char *b70d67d40a474945a2fda60c67765560DeuUIKdD24aJwX8u[] = {
/* columns rows colors chars-per-pixel */
"32 32 7 1 ",
"  c #22303E",
". c black",
"X c #898989",
"o c #342423",
"O c #4D3533",
"+ c #A4A4A4",
"@ c #704844",
/* pixels */
"                                ",
"                                ",
"                                ",
"                                ",
"                                ",
"                                ",
"                                ",
"                                ",
"          ............          ",
"         .XXXXXXXXXXXX.         ",
"        .XXooOOOOOOooXX.        ",
"        .XXoOOOOOOOOoXX.        ",
"        .XXOOOOOOOOOOXX.        ",
"        .++..........XX.        ",
"        .++..........++.        ",
"        .XX..........++.        ",
"        .XX..........XX.        ",
"        .XXXXX++++XXXXX.        ",
"        .XXOO@@@@@@OOXX.        ",
"        .XXO@@@@@@@@OXX.        ",
"        .XXO@@@@@@@@OXX.        ",
"        .XXO@@@@@@@@OXX.        ",
"        .XXOO@@@@@@OOXX.        ",
"         ..............         ",
"                                ",
"                                ",
"                                ",
"                                ",
"                                ",
"                                ",
"                                ",
"                                "
};
