/* XPM */
static char * enemy_xpm[] = {
"32 32 167 2",
"  	c #22303E",
". 	c #442123",
"+ 	c #692F30",
"@ 	c #703132",
"# 	c #6F3132",
"$ 	c #703133",
"% 	c #7B3536",
"& 	c #813738",
"* 	c #803738",
"= 	c #953F41",
"- 	c #9F4143",
"; 	c #9E4143",
"> 	c #9E4244",
", 	c #AE4749",
"' 	c #B84B4D",
") 	c #B94C4E",
"! 	c #953E3F",
"~ 	c #17A51C",
"{ 	c #17A41C",
"] 	c #974042",
"^ 	c #A55052",
"/ 	c #A24E50",
"( 	c #9F4749",
"_ 	c #A45354",
": 	c #A54B4D",
"< 	c #AF484A",
"[ 	c #BB4D4F",
"} 	c #BA4C4E",
"| 	c #A04345",
"1 	c #9A4042",
"2 	c #1AA51D",
"3 	c #12A71C",
"4 	c #9A4D4F",
"5 	c #FEFDFD",
"6 	c #000000",
"7 	c #FBF9F9",
"8 	c #A14344",
"9 	c #A43F41",
"0 	c #B74B4D",
"a 	c #16A51C",
"b 	c #9D5456",
"c 	c #050505",
"d 	c #070707",
"e 	c #A03D3F",
"f 	c #A13D3F",
"g 	c #422222",
"h 	c #442223",
"i 	c #935553",
"j 	c #FFFFFF",
"k 	c #010101",
"l 	c #A43D3F",
"m 	c #FDFBFB",
"n 	c #0E0E0E",
"o 	c #AA3D3F",
"p 	c #BC4D4F",
"q 	c #A03F41",
"r 	c #AC4446",
"s 	c #BD4D4F",
"t 	c #15A51C",
"u 	c #8E3337",
"v 	c #A04042",
"w 	c #9E3B3D",
"x 	c #9E3F41",
"y 	c #A74648",
"z 	c #B34A4C",
"A 	c #86393A",
"B 	c #3E2222",
"C 	c #8C3B3D",
"D 	c #A34345",
"E 	c #A54346",
"F 	c #A84447",
"G 	c #A94648",
"H 	c #432123",
"I 	c #3D2021",
"J 	c #4B2425",
"K 	c #8F3D3E",
"L 	c #9F4948",
"M 	c #AE524F",
"N 	c #BC5854",
"O 	c #BC5954",
"P 	c #BE5955",
"Q 	c #AE524E",
"R 	c #612D2E",
"S 	c #4D2426",
"T 	c #994745",
"U 	c #BB856D",
"V 	c #D8A986",
"W 	c #EBB791",
"X 	c #EBB792",
"Y 	c #EDB993",
"Z 	c #D6A684",
"` 	c #694E40",
" .	c #402122",
"..	c #994A46",
"+.	c #C89C7C",
"@.	c #EBC89C",
"#.	c #FFD8A9",
"$.	c #FFD9A9",
"%.	c #FFDAAB",
"&.	c #E9C59A",
"*.	c #735C49",
"=.	c #572929",
"-.	c #652D2E",
";.	c #723032",
">.	c #9C4A48",
",.	c #C79B7B",
"'.	c #EAC79B",
").	c #FFD7A8",
"!.	c #FFD9AA",
"~.	c #E9C499",
"{.	c #903C3E",
"].	c #B0484A",
"^.	c #AD4749",
"/.	c #A54D4A",
"(.	c #C49879",
"_.	c #E7C298",
":.	c #FCD3A5",
"<.	c #FDD5A7",
"[.	c #FDD6A7",
"}.	c #FFD6A7",
"|.	c #E6C096",
"1.	c #725A48",
"2.	c #682E2F",
"3.	c #923D3F",
"4.	c #A34747",
"5.	c #AD6A5B",
"6.	c #C3826C",
"7.	c #D89A7D",
"8.	c #E4BD94",
"9.	c #E7C499",
"0.	c #E1B18C",
"a.	c #C3836D",
"b.	c #633F37",
"c.	c #492325",
"d.	c #85393B",
"e.	c #9D4144",
"f.	c #A84347",
"g.	c #B24248",
"h.	c #BF5C57",
"i.	c #CB8E74",
"j.	c #CD9779",
"k.	c #C67C69",
"l.	c #AB4447",
"m.	c #59282A",
"n.	c #382121",
"o.	c #522729",
"p.	c #984042",
"q.	c #B44A4C",
"r.	c #B64B4D",
"s.	c #AC4749",
"t.	c #AD4A4A",
"u.	c #B44D4D",
"v.	c #BB4F50",
"w.	c #5A2A2B",
"x.	c #472224",
"y.	c #B2494B",
"z.	c #903C3D",
"A.	c #8F3C3E",
"B.	c #A84547",
"C.	c #482224",
"D.	c #963F41",
"E.	c #7F3638",
"F.	c #873A3B",
"G.	c #923E3F",
"H.	c #422122",
"I.	c #462223",
"J.	c #612C2D",
"                                                                ",
"                                                                ",
"                                                                ",
"                                                                ",
"                                                                ",
"                    . . . . . . . . . . . . . . . . .           ",
"                    . . + @ # # $ % & * * & & & & & . .         ",
"                . . . . = - ; > - , ' ) ) ) ) ) ) ) ! .         ",
"                . ~ { . ] ^ / ( _ : < [ ) } | | | | 1 .         ",
"                . 2 3 . 4 5 6 6 7 8 9 ) ) . } } } 0 . .         ",
"                . a 3 . b 5 c d 5 e f } ) . } } } ) . .         ",
"                . g h . i j k k 5 e l } } [ } } } } & .         ",
"                  . 3 3 . m n n 5 e o p p p p p } } & .         ",
"                  . 3 3 . q e e e e r p p s s p } p & .         ",
"                  . 3 t . u e v w x y z } & & & & A & .         ",
"                  . B h . C D E E E E F G . . . . . H .         ",
"                  . I J K L M N O O P Q R .                     ",
"                    H S T U V W X X Y Z ` .                     ",
"                 .. . . ..+.@.#.$.$.%.&.*..                     ",
"                . =.-.;.>.,.'.).).).!.~.*..                     ",
"                . {.].^./.(._.:.<.[.}.|.1..                     ",
"                . 2.3.G 4.5.6.7.8.9.0.a.b..                     ",
"                 .. c.d.e.f.g.h.i.j.k.l.m..                     ",
"                  n.. o.p.q.r.s.t.u.v.s.w..                     ",
"                    . x.p.y.z.. . A.< B.. .                     ",
"                    . C.D.E.. . . F.G.. .                       ",
"                    H.I.# . .   H J.. .                         ",
"                      . . .     . . .                           ",
"                                                                ",
"                                                                ",
"                                                                ",
"                                                                "};
