/* XPM */
static char * player_00_xpm[] = {
"32 32 7 1",
" 	c #22303E",
".	c #060608",
"+	c #683E2C",
"@	c #7E4C35",
"#	c #3A5124",
"$	c #4B692F",
"%	c #161F28",
"                                ",
"                                ",
"                                ",
"                                ",
"           ..........           ",
"           ..........           ",
"          .++@@@@@@++.          ",
"    ......+@@@@@@@@@@+......    ",
"    ......+@@@@@@@@@@+......    ",
"    ..##$$@@@@@@@@@@@$$$##..    ",
"      ..###########@@$##..      ",
"      ..###########@@$##..      ",
"        ..#########++$++..      ",
"        ..#########++$++..      ",
"        ...$$$$..$$###++..      ",
"        ..$$$$$$$$$##+++..      ",
"        ..$$$$$$$$$##+++..      ",
"        ..$$$$$$$$$##+..        ",
"        ..$$$$$$$$$##.          ",
"        ..$$$$$$$$$##.          ",
"        ..#......####.          ",
"        ..#......####.          ",
"      %%%%.##..%%..##.%%%%      ",
"    %%%%%%%....%%%%...%%%%%%    ",
"    %%%%%%%....%%%%...%%%%%%    ",
"    %%%%%%%%%%%%%%%%%%%%%%%%    ",
"      %%%%%%%%%%%%%%%%%%%%      ",
"      %%%%%%%%%%%%%%%%%%%%      ",
"                                ",
"                                ",
"                                ",
"                                "};
