/* XPM */
static char * player_1_xpm[] = {
"32 32 8 1",
" 	c #22303E",
".	c #060608",
"+	c #683E2C",
"@	c #7E4C35",
"#	c #3A5124",
"$	c #4B692F",
"%	c #FFFFFF",
"&	c #161F28",
"                                ",
"                                ",
"                                ",
"                                ",
"           ..........           ",
"           ..........           ",
"          .++@@@@@@++.          ",
"    ......+@@@@@@@@@@+......    ",
"    ......+@@@@@@@@@@+......    ",
"    ..##$$$@@@@@@@@@@@$$##..    ",
"      ..##$@@###########..      ",
"      ..##$@@###########..      ",
"      ..++$++#########..        ",
"      ..++$++#%%%###%%..        ",
"      ..++###$%..$$$%...        ",
"      ..+++##$%%%$$$%%..        ",
"      ..+++##$$$$$$$$$..        ",
"        ..+##$$$$$$$$$..        ",
"          .##$$$$$$$$$..        ",
"          .##$$$$$$$$$..        ",
"          .####......#..        ",
"          .####......#..        ",
"      &&&&.##..&&..##.&&&&      ",
"    &&&&&&...&&&&....&&&&&&&    ",
"    &&&&&&...&&&&....&&&&&&&    ",
"    &&&&&&&&&&&&&&&&&&&&&&&&    ",
"      &&&&&&&&&&&&&&&&&&&&      ",
"      &&&&&&&&&&&&&&&&&&&&      ",
"                                ",
"                                ",
"                                ",
"                                "};
