/* XPM */
static char *_8f1a5c3cb2c4dca97bf768fe046df4dQyS7sw5PvZpwRWNY[] = {
/* columns rows colors chars-per-pixel */
"32 32 7 1 ",
"  c #22303E",
". c #060608",
"X c #683E2C",
"o c #7E4C35",
"O c #3A5124",
"+ c #4B692F",
"@ c #161F28",
/* pixels */
"                                ",
"                                ",
"                                ",
"                                ",
"           ..........           ",
"           ..........           ",
"          .XXooooooXX.          ",
"    ......XooooooooooX......    ",
"    ......XooooooooooX......    ",
"    ..OO+++ooooooooooo++OO..    ",
"      ..OO+ooOOOOOOOOOOO..      ",
"      ..OO+ooOOOOOOOOOOO..      ",
"      ..XX+XXOOOOOOOOO..        ",
"      ..XX+XXOOOOOOOOO..        ",
"      ..XXOOO++..++++...        ",
"      ..XXXOO+++++++++..        ",
"      ..XXXOO+++++++++..        ",
"        ..XOO+++++++++..        ",
"          .OO+++++++++..        ",
"          .OO+++++++++..        ",
"          .OOOO......O..        ",
"          .OOOO......O..        ",
"      @@@@.OO..@@..OO.@@@@      ",
"    @@@@@@...@@@@....@@@@@@@    ",
"    @@@@@@...@@@@....@@@@@@@    ",
"    @@@@@@@@@@@@@@@@@@@@@@@@    ",
"      @@@@@@@@@@@@@@@@@@@@      ",
"      @@@@@@@@@@@@@@@@@@@@      ",
"                                ",
"                                ",
"                                ",
"                                "
};
